<?xml version="1.0" encoding="utf-8"?>
<!-- Generator: Adobe Illustrator 19.2.1, SVG Export Plug-In . SVG Version: 6.00 Build 0)  -->
<svg version="1.1" id="layer" xmlns="http://www.w3.org/2000/svg" xmlns:xlink="http://www.w3.org/1999/xlink" x="0px" y="0px"
	 viewBox="0 0 652 652" style="enable-background:new 0 0 652 652;" xml:space="preserve">
<style type="text/css">
	.st0{fill-rule:evenodd;clip-rule:evenodd;fill:#456372;}
</style>
<g>
	<path class="st0" d="M148.3,275.5c-1.7,1.9-3.7,3.8-5.8,5.9l-8.3,7.9h24.1v9.8h-38.8v-5.1l13.5-16.3c2.5-2.5,4.6-4.7,6.1-6.6
		c1.5-1.8,3.3-4,4.1-5.4c1-1.6,6.1-6.5,5.6-12.6c-2.2-6.8-8.5-7.4-12.2-6.9c-3.8,0.1-8.2,5.2-8.9,9.6c0,0-6.9-1-8.4-1.7
		c0.1-1.9,3.4-10.2,9.8-13.9c3.1-1.4,5.1-2.1,8.7-2.1c2.8,0,5.3,0.4,7.6,1.1c2.3,0.7,4.2,1.8,5.8,3.2c1.6,1.4,4.3,3.1,5.1,5.2
		c1.3,2.7,2.3,5.5,2.3,8.3c0.3,6.2-5,12.3-6,13.9C151.4,271.8,150,273.7,148.3,275.5 M103.3,405.7c-46,0-83.2-37.3-83.2-83.2
		c0-46,37.3-83.2,83.2-83.2v29.4c-29.7,0-53.8,24.1-53.8,53.8s24.1,53.9,53.8,53.9c23.6,0,43.6-15.2,50.9-36.3
		c-14.4,0-34.8-0.1-34.8-0.1v-30.8c0,0,62.9,0,66.1,0c0.7,4.3,1.1,8.8,1.1,13.3C186.5,368.5,149.3,405.7,103.3,405.7 M214.5,237.9
		h5.6v166.4h-5.6V237.9z M295.8,360.8c-4.8,2.9-10.8,4.4-17.8,4.4c-7.3,0-13.4-1.2-18.1-3.7c-4.8-2.5-7.9-5.9-9.5-10.3
		c-1.5-4.4-2.3-11-2.3-19.8v-26.3c0-6.5,0.2-11.3,0.7-14.6c0.5-3.2,1.9-6.4,4.3-9.4c2.4-3,5.6-5.4,9.8-7.1c4.2-1.7,9-2.6,14.4-2.6
		c7.4,0,13.5,1.3,18.3,4c4.8,2.7,7.9,6,9.5,10c1.5,4,1.8,2.8,1.8,11.2v7l-20.4-0.3v-6.1c0-4.6-0.5-7.5-1.6-8.7
		c-1.1-1.1-3.4-1.7-6.9-1.7c-4.1,0-6.6,0.7-7.7,2.1c-1.1,1.4-1.6,4.4-1.6,9V339c0,4.4,0.5,7.3,1.6,8.7c1.1,1.4,3.5,2,7.4,2
		c3.7,0,6-0.7,7.2-2c1.1-1.4,1.7-3.2,1.7-8.2l-0.1-6.5h20.5v1.4c0,9.3-0.3,12.3-1.7,16.1C303.7,354.4,300.6,357.9,295.8,360.8
		 M354.1,295.2c0-2.8-1.4-6.1-4.1-7c-2.7-0.9-6.2-1.3-13.4-1.3v25.5c7,0,10.5-0.4,13.2-1.1c2.8-0.7,4.2-7.2,4.2-11.2V295.2z
		 M354.1,335.5c0-4.8-1-7.7-3-8.9c-2-1.1-5.9-1.7-14.4-1.7v38.9l-20.1,0l0.3-90.4H335c12.1,0,20.3,0.4,24.6,1.3
		c4.3,0.9,7.8,3,10.5,6.5c2.7,3.5,4.1,9.1,4.1,16.8c0,7-1.2,13.3-3,15.7c-1.9,2.4-5.6,3.9-11.1,4.4c5,1.2,8.4,2.7,10.1,4.6
		c1.7,1.9,2.8,3.7,3.2,5.3c0.4,1.6,0.9,4.3,0.9,11.6v23.7l-20,0.5V335.5z M425.7,296.6c0-4.2-0.7-6.8-2-8c-1.3-1.2-4.1-1.7-8.2-1.7
		c-3.5,0-6.2,0.5-8.1,1.4c-1.9,0.9-2.8,3.7-2.8,8.3v41.8c0,5.2,0.6,8.4,1.8,9.6c1.2,1.2,4.1,1.8,8.5,1.8c4.6,0,7.5-0.7,8.8-2.1
		c1.3-1.4,1.9-4.7,1.9-10V296.6z M441.4,355.5c-2.5,3.1-6,5.5-10.3,7.2c-4.3,1.7-9.4,2.5-15.2,2.5c-5.5,0-10.4-0.8-14.8-2.4
		c-4.4-1.6-7.9-3.9-10.5-7.1c-2.7-3.1-4.2-6.6-4.7-10.3s-0.8-10.2-0.8-19.5v-15.4c0-9,0.2-15.4,0.7-19.2c0.5-3.8,2-7.2,4.6-10.3
		c2.6-3.1,6-5.5,10.3-7.2c4.3-1.7,9.4-2.5,15.2-2.5c5.5,0,10.4,0.8,14.8,2.4c4.4,1.6,7.9,3.9,10.5,7.1c2.6,3.1,4.2,6.6,4.7,10.3
		c0.5,3.7,0.8,10.2,0.8,19.4V326c0,9-0.2,15.4-0.7,19.2C445.5,349,444,352.4,441.4,355.5 M516,363.3c-2.9-13.8-9.7-47.7-12-65.4
		c-1,7.6-9,41.5-12.7,65.4h-22l-17.1-90h19.3l5.5,31.4l4,37.3c0.9-15.7,8.9-43.3,12.7-68.7h22.4c0.3,2.6,4.1,12.5,5.6,29.7l5.6,38.4
		c1.5-21.8,6.6-47.3,10-68.1h17.9l-18.4,90H516z M600.5,299.3c0-4-0.3-6.6-0.9-7.8c-0.6-1.1-2.1-2-4.4-2.5
		c-2.3-0.5-6.5-0.8-12.8-0.8v60.1c8.3,0,13.3-0.7,15.3-2c1.9-1.3,2.9-5,2.9-11V299.3z M618.8,352.8c-0.8,2.7-2.3,4.9-4.4,6.4
		c-2.1,1.5-4.6,2.6-7.7,3.2c-3,0.6-6.2,0.9-12.4,0.9h-32.3v-90h19.2c12.4,0,19.4,0.5,23.7,1.6c4.4,1,7.7,2.7,10,5.1
		c2.3,2.4,3.7,5,4.3,7.9c0.6,2.9,0.8,8.6,0.8,17.1v31.5C620.1,344.6,619.7,350,618.8,352.8"/>
</g>
</svg>
