<?xml version="1.0" encoding="UTF-8" standalone="no"?>
<!-- Created with Inkscape (http://www.inkscape.org/) -->

<svg
   xmlns:dc="http://purl.org/dc/elements/1.1/"
   xmlns:cc="http://creativecommons.org/ns#"
   xmlns:rdf="http://www.w3.org/1999/02/22-rdf-syntax-ns#"
   xmlns:svg="http://www.w3.org/2000/svg"
   xmlns="http://www.w3.org/2000/svg"
   xmlns:sodipodi="http://sodipodi.sourceforge.net/DTD/sodipodi-0.dtd"
   xmlns:inkscape="http://www.inkscape.org/namespaces/inkscape"
   width="175.21407"
   height="28.04068"
   viewBox="0 0 46.358722 7.4190967"
   version="1.1"
   id="svg241"
   inkscape:version="0.92.0 r15299"
   sodipodi:docname="wistia.svg">
  <defs
     id="defs235">
    <style
       id="style243">.cls-1{fill:#363a46;stroke:#363a46;stroke-miterlimit:10;stroke-width:0.2px;}.cls-2{fill:#0d8ce6;}.cls-3{fill:#53b9ff;}</style>
  </defs>
  <sodipodi:namedview
     id="base"
     pagecolor="#ffffff"
     bordercolor="#666666"
     borderopacity="1.0"
     inkscape:pageopacity="0.0"
     inkscape:pageshadow="2"
     inkscape:zoom="5.1488379"
     inkscape:cx="87.107035"
     inkscape:cy="13.520341"
     inkscape:document-units="mm"
     inkscape:current-layer="layer1"
     showgrid="false"
     fit-margin-top="0"
     fit-margin-left="0"
     fit-margin-right="0"
     fit-margin-bottom="0"
     units="px"
     inkscape:window-width="1280"
     inkscape:window-height="744"
     inkscape:window-x="-4"
     inkscape:window-y="-4"
     inkscape:window-maximized="1" />
  <metadata
     id="metadata238">
    <rdf:RDF>
      <cc:Work
         rdf:about="">
        <dc:format>image/svg+xml</dc:format>
        <dc:type
           rdf:resource="http://purl.org/dc/dcmitype/StillImage" />
        <dc:title></dc:title>
      </cc:Work>
    </rdf:RDF>
  </metadata>
  <g
     inkscape:label="Layer 1"
     inkscape:groupmode="layer"
     id="layer1"
     transform="translate(91.838736,-261.40816)">
    <g
       id="g297"
       transform="translate(0.13229129,-0.13229077)">
      <path
         id="path249"
         d="m -71.936778,261.7879 h 0.986896 l -2.799292,6.95325 h -0.216958 l -2.262188,-5.62769 -2.288645,5.62769 h -0.211667 l -2.791354,-6.95325 h 0.997479 l 1.907646,4.7625 1.920875,-4.7625 h 0.936625 l 1.928812,4.7625 z"
         class="cls-1"
         inkscape:connector-curvature="0"
         style="fill:#363a46;stroke:#363a46;stroke-width:0.05291667px;stroke-miterlimit:10" />
      <path
         id="path251"
         d="m -69.664007,261.79055 h 0.992187 v 6.9215 h -0.992187 z"
         class="cls-1"
         inkscape:connector-curvature="0"
         style="fill:#363a46;stroke:#363a46;stroke-width:0.05291667px;stroke-miterlimit:10" />
      <path
         id="path253"
         d="m -64.917382,265.81221 -0.751417,-0.45243 a 3.4395833,3.4395833 0 0 1 -1.008062,-0.85196 1.6139583,1.6139583 0 0 1 -0.291042,-0.96838 1.7039166,1.7039166 0 0 1 0.568854,-1.32291 2.1166666,2.1166666 0 0 1 1.463146,-0.51594 2.794,2.794 0 0 1 1.5875,0.48683 v 1.12448 a 2.2965833,2.2965833 0 0 0 -1.611313,-0.71967 1.3361458,1.3361458 0 0 0 -0.793749,0.2249 0.68262499,0.68262499 0 0 0 -0.312209,0.57415 0.88106249,0.88106249 0 0 0 0.230188,0.58208 2.9104166,2.9104166 0 0 0 0.738187,0.5715 l 0.756708,0.44715 q 1.267355,0.7567 1.267355,1.92616 a 1.7674166,1.7674166 0 0 1 -0.555625,1.35202 2.0425833,2.0425833 0 0 1 -1.449917,0.52917 3.0453541,3.0453541 0 0 1 -1.867958,-0.62971 v -1.26735 q 0.79375,1.016 1.852083,1.016 a 1.1694583,1.1694583 0 0 0 0.775229,-0.26459 0.81227082,0.81227082 0 0 0 0.309563,-0.64823 q 0.0053,-0.62706 -0.907521,-1.19327 z"
         class="cls-1"
         inkscape:connector-curvature="0"
         style="fill:#363a46;stroke:#363a46;stroke-width:0.05291667px;stroke-miterlimit:10" />
      <path
         id="path255"
         d="m -62.065174,261.77996 h 5.783792 v 0.88107 h -2.413 v 6.05102 h -0.997479 v -6.05102 h -2.38125 v -0.88107 z"
         class="cls-1"
         inkscape:connector-curvature="0"
         style="fill:#363a46;stroke:#363a46;stroke-width:0.05291667px;stroke-miterlimit:10" />
      <path
         id="path257"
         d="m -54.82882,261.79055 h 0.992188 v 6.9215 h -0.992188 z"
         class="cls-1"
         inkscape:connector-curvature="0"
         style="fill:#363a46;stroke:#363a46;stroke-width:0.05291667px;stroke-miterlimit:10" />
      <path
         id="path259"
         d="m -49.584778,261.75086 h 0.695854 l 3.103562,6.96119 h -1.016 l -0.92075,-2.05317 h -2.95275 l -0.865187,2.05317 h -1.018646 z m 1.455208,4.02696 -1.11125,-2.50825 -1.034521,2.50825 h 2.151063 z"
         class="cls-1"
         inkscape:connector-curvature="0"
         style="fill:#363a46;stroke:#363a46;stroke-width:0.05291667px;stroke-miterlimit:10" />
      <path
         id="path261"
         d="m -82.988424,264.4549 c 0,0 -0.203729,0.40746 -1.230312,1.05833 -0.436563,0.26459 -1.344083,0.56621 -2.50825,0.67998 -0.629708,0.0609 -1.785938,0 -2.283354,0 -0.497417,0 -0.727604,0.10584 -1.177396,0.61119 l -1.651,1.86796 h 1.005417 c 0.43127,0 3.132666,0.1561 4.331229,-0.17198 3.894666,-1.06892 3.513666,-4.04548 3.513666,-4.04548 z"
         class="cls-2"
         inkscape:connector-curvature="0"
         style="fill:#0d8ce6;stroke-width:0.26458332" />
      <path
         id="path263"
         d="m -83.091611,263.27221 c 0.187854,-1.143 -0.457729,-1.4552 -0.457729,-1.4552 0,0 0.02646,0.92868 -1.674813,1.12447 -1.524,0.17728 -6.614583,0.037 -6.614583,0.037 l 1.635125,1.87589 c 0.441854,0.508 0.677333,0.56621 1.17475,0.60325 a 21.005271,21.005271 0 0 0 2.341562,-0.0344 c 0.817563,-0.0635 1.992313,-0.32809 2.764896,-0.93134 a 2.0849166,2.0849166 0 0 0 0.830792,-1.21973 z"
         class="cls-3"
         inkscape:connector-curvature="0"
         style="fill:#53b9ff;stroke-width:0.26458332" />
    </g>
  </g>
</svg>
